<!--?xml version="1.0" standalone="no"?-->
              <svg id="sw-js-blob-svg" viewBox="0 0 100 100" xmlns="http://www.w3.org/2000/svg" version="1.1">
                    <defs> 
                        <linearGradient id="sw-gradient" x1="0" x2="1" y1="1" y2="0">
                            <stop id="stop1" stop-color="rgba(248, 117, 55, 1)" offset="0%"></stop>
                            <stop id="stop2" stop-color="rgba(251, 168, 31, 1)" offset="100%"></stop>
                        </linearGradient>
                    </defs>
                <path fill="url(#sw-gradient)" d="M21.3,-25.2C28.2,-19.7,34.6,-13.5,34.3,-7.2C34,-1,27,5.3,22.3,12.2C17.5,19.1,15,26.6,10.9,26.7C6.8,26.8,1.2,19.5,-2.5,14.7C-6.2,10,-7.9,7.8,-8.6,5.5C-9.3,3.2,-8.8,0.9,-8.4,-1.5C-8,-3.9,-7.7,-6.3,-6.3,-12.8C-4.9,-19.2,-2.4,-29.8,2.4,-32.6C7.2,-35.5,14.5,-30.7,21.3,-25.2Z" width="100%" height="100%" transform="translate(50 50)" stroke-width="0" style="transition: all 0.3s ease 0s;"></path>
              </svg>